# xmcd CD database file
#
# Track frame offsets:
#	150
#	17598
#	35471
#	65010
#	94397
#	119398
#	146957
#	158463
#	172680
#	196847
#	210336
#	230069
#	254567
#
# Disc length: 3661 seconds
#
# Revision: 0
# Processed by: cddbd v1.5.2PL0 Copyright (c) Steve Scherf et al.
# Submitted via: CDex 1.70beta2
#
DISCID=b00e4b0d
DTITLE=New Orleans Shakers - 20. Dixieland Jubilee
DYEAR=2016
DGENRE=Jazz
TTITLE0=Gloria's Kitchen
TTITLE1=As Long as I Live
TTITLE2=They Say It's Wonderful
TTITLE3=Feitico
TTITLE4=Burgundy Street Blues
TTITLE5=When I Grow Too Old to Dream
TTITLE6=Happy Steamtrain
TTITLE7=Sentimental Journey
TTITLE8=Ei Quero é Sossego
TTITLE9=Tico Tico
TTITLE10=You Call It Madness, But I Call It Love
TTITLE11=Kidney Stew
TTITLE12=The Song Has Ended
EXTD=YEAR: 2016
EXTT0=
EXTT1=
EXTT2=
EXTT3=
EXTT4=
EXTT5=
EXTT6=
EXTT7=
EXTT8=
EXTT9=
EXTT10=
EXTT11=
EXTT12=
PLAYORDER=
